PathFileType	4	(X/Y/Z)	C:\Users\°ÂÌØÂü\Desktop\20210112\bx_y_5_1802-Unnamed.trc
DataRate	CameraRate	NumFrames	NumMarkers	Units	OrigDataRate	OrigDataStartFrame	OrigNumFrames
50.00	50.00	       5	0	mm	50.00	299	       478
Frame#	Time	
		

299	5.960	-555.40015	30.40658	544.54486	-699.34949	313.52905	590.47711				-812.79944	-81.30347	666.37866	-790.62177	304.50787	670.98212				-476.70779	288.19733	943.49335	-527.56989	185.82468	534.64215	-697.62793	150.17403	207.67500	-543.05334	-28.40603	467.03049	-670.66956	54.90799	155.41127	-567.35327	293.09235	514.98395	-627.42084	289.50424	462.00195	-687.11829	-91.19460	593.93488				-665.83582	-67.44726	163.13097	-700.49872	78.12293	210.40004	-625.98798	-80.17861	159.57216	-759.85931	220.70784	205.97432	-882.56708	296.11902	144.63147	-517.36340	-72.85857	142.68787	-600.72137	17.10325	165.66823	-559.31891	-45.39460	160.83441	-672.68964	173.67014	152.40382	-592.44159	223.99667	171.69362	-667.08606	298.35953	160.68431	-630.30463	307.41888	161.33553	-560.33990	264.52744	163.95062	-528.24835	304.48935	146.43700	-294.79181	136.60358	1166.94324	-600.93817	-80.47797	551.93091	-733.55157	-25.52307	706.22687	-726.75989	236.29822	702.06342	-788.95825	165.78123	189.96671	-755.96033	-2.53026	207.71364	-787.85999	64.17387	179.15114	-585.57422	-77.10480	513.94757	-654.33124	-68.44629	455.33957	-875.59369	-78.06319	139.98495										-1040.50293	115.18344	743.95349	
300	5.980	-554.72638	30.20739	544.25085	-699.72815	313.95819	589.84875	-454.54297	-32.15228	937.99091	-812.92273	-81.43099	665.77100	-790.95306	304.86563	670.36292				-474.65906	288.81165	939.21893	-527.43488	186.61334	534.43323	-697.72620	150.23343	207.49902	-542.51605	-28.47314	466.52545	-670.80896	54.84010	155.46129	-567.14758	293.32104	514.82660	-627.62640	289.69180	461.76779	-686.65405	-91.59244	593.71399				-665.71307	-67.43215	163.27388	-700.36432	78.15897	210.41797	-625.92188	-80.19242	159.66507	-759.85187	220.83183	206.09894	-882.61652	296.18390	144.69249	-517.44641	-72.90560	142.84724	-600.68384	16.64081	166.31453	-559.28876	-45.28579	160.90721	-673.04156	174.22386	152.34735	-592.44977	224.03105	172.13142	-667.12555	298.36615	160.76700	-630.38947	307.40051	161.41283	-560.51874	264.53473	164.16843	-528.34448	304.43790	146.58141	-293.62616	137.76169	1162.86182	-600.40314	-80.53336	551.73438	-733.70233	-25.45317	705.53168				-788.95825	165.78123	189.96671	-755.72418	-2.63006	208.37207	-787.54761	64.44630	179.71896	-584.97272	-77.47456	513.88971	-653.84192	-69.00359	455.10190	-875.50989	-78.01568	140.07288										-1040.86768	115.27898	743.15564	
301	6.000	-554.24609	30.48937	544.36249	-699.62268	314.71591	590.17664	-452.54007	-30.43077	933.17474	-812.49487	-81.41267	665.20868	-792.02893	303.88733	669.43750	-728.52081	238.54692	701.77704	-472.84116	289.72729	935.79279	-527.23853	187.94240	534.65167	-697.56250	150.75853	207.49614	-542.07477	-28.72067	466.72137	-670.63702	54.90877	155.65880	-567.34692	294.77133	514.77069	-627.77655	290.22131	461.59845	-686.44763	-91.89226	593.73236	-518.09668	248.58687	473.03873	-665.51154	-67.49109	163.28197	-700.09406	78.68389	210.43187	-625.95264	-80.05891	159.68169	-759.86133	220.76563	206.16591	-882.53595	296.01291	144.50877	-517.36359	-72.71554	142.90067	-600.83673	16.77305	166.11633	-559.33563	-45.35541	161.02324	-673.04156	174.22386	152.34735	-592.40393	223.95921	171.90901	-667.21936	298.55991	160.59134	-630.30463	307.41888	161.33553	-560.34955	264.39572	163.61926	-528.39520	304.16296	146.43871	-292.45929	139.27898	1159.06165	-599.72479	-80.46017	550.67358	-733.56165	-24.88906	704.71185				-789.04370	165.60526	190.17387	-755.81958	-2.46353	208.55989	-787.42566	64.45920	179.82584	-584.89777	-77.34430	513.95325	-653.40295	-69.13596	455.03375	-875.98743	-77.93499	140.11913										-1040.74243	114.69955	741.63306	
302	6.020	-553.91125	30.82869	544.37604	-700.40021	315.55606	589.44458	-450.55032	-29.57964	928.41693	-812.31030	-81.40749	664.28198	-792.57941	304.48306	668.78687	-728.59454	238.34402	700.95654	-471.09802	290.33710	931.78900	-526.92609	188.85046	534.88037	-697.10889	151.29929	207.56064	-542.06494	-28.34970	466.56357	-670.75012	54.92604	155.22209	-566.99664	295.69574	514.83051	-628.16852	290.07681	460.62369	-686.08606	-91.55580	593.15076	-517.87250	249.07437	472.95956	-665.63306	-67.33646	163.46173	-700.24768	78.78527	210.27765	-625.89447	-79.99969	159.68524	-759.89447	220.85083	206.11678	-882.51361	295.87210	144.41501	-517.36359	-72.71554	142.90067	-600.76001	16.76535	166.02902	-559.14441	-45.58134	160.93990	-673.07013	174.25383	152.34573	-592.56323	224.15202	171.83711	-667.21936	298.55991	160.59134	-630.37280	307.44528	161.25166	-560.66010	264.75687	163.94307	-528.24243	304.18292	146.41551	-291.47864	140.48343	1155.52832	-599.10791	-80.74288	551.10840	-733.69989	-23.70711	703.87415				-788.95502	165.67734	190.13959	-756.06543	-2.28503	208.52780	-787.65741	64.62547	179.82414	-584.20856	-77.30869	513.84991	-652.91174	-68.97466	454.83142	-875.97748	-78.88188	141.21204										-1040.74939	114.52341	741.01819	
303	6.040	-552.97247	31.97231	543.81866	-700.54785	316.02908	589.02161	-448.49863	-28.25592	924.00195	-811.36285	-80.88103	663.85565	-793.02478	305.06064	668.79706	-729.26117	238.84708	700.02777	-468.95413	290.74802	928.43274	-526.87360	189.33389	534.71844				-541.12933	-27.58682	466.23337	-671.03632	55.15487	155.18527	-567.37878	296.26816	514.76770	-627.49219	292.02350	461.29730	-685.75751	-91.44267	592.88367	-517.12018	249.59637	473.42874	-665.60144	-67.16820	163.35539	-700.15155	79.04993	210.27815	-625.81726	-79.87702	159.77077	-759.91339	220.88316	205.86002	-882.66138	296.22351	144.66956	-517.44641	-72.90560	142.84724	-600.73773	16.95768	165.73193	-559.31067	-45.19559	161.09256	-672.90131	174.11415	152.84732	-592.52429	224.04504	171.85487	-667.21936	298.55991	160.59134	-630.38177	307.51743	161.17664	-560.60236	264.77591	163.81088	-528.18787	304.16019	146.27597	-290.47504	141.55351	1152.17834	-598.09692	-80.23698	551.37177	-733.16162	-23.36182	703.26929				-788.89545	165.64592	190.18272	-756.09155	-1.79503	208.46187	-787.73895	64.54891	179.65982	-583.22839	-76.44351	513.12811	-652.09259	-68.55684	455.14243	-875.97748	-78.88188	141.21204										-1040.22839	114.03487	740.24213	
